HIERARCHY
ROOT Hips
{
	OFFSET 0.00 0.00 0.00
	CHANNELS 6 Xposition Yposition Zposition Xrotation Yrotation Zrotation
	JOINT LeftUpLeg
	{
		OFFSET 3.34807 0.00000 0.00000
		CHANNELS 3 Xrotation Yrotation Zrotation
		JOINT LeftLeg
		{
			OFFSET 0.00000 -16.98552 0.00000
			CHANNELS 3 Xrotation Yrotation Zrotation
			JOINT LeftFoot
			{
				OFFSET 0.00000 -16.83686 0.00000
				CHANNELS 3 Xrotation Yrotation Zrotation
				JOINT LeftToeBase
				{
					OFFSET 0.00000 -1.59599 5.95633
					CHANNELS 3 Xrotation Yrotation Zrotation
					End Site
					{
						OFFSET 0.00000 0.00000 2.95275
					}
				}
			}
		}
	}
	JOINT RightUpLeg
	{
		OFFSET -3.34807 0.00000 0.00000
		CHANNELS 3 Xrotation Yrotation Zrotation
		JOINT RightLeg
		{
			OFFSET 0.00000 -16.98552 0.00000
			CHANNELS 3 Xrotation Yrotation Zrotation
			JOINT RightFoot
			{
				OFFSET 0.00000 -16.83686 0.00000
				CHANNELS 3 Xrotation Yrotation Zrotation
				JOINT RightToeBase
				{
					OFFSET 0.00000 -1.59599 5.95633
					CHANNELS 3 Xrotation Yrotation Zrotation
					End Site
					{
						OFFSET 0.00000 0.00000 2.95275
					}
				}
			}
		}
	}
	JOINT Spine
	{
		OFFSET 0.00000 0.03937 0.00000
		CHANNELS 3 Xrotation Yrotation Zrotation
		JOINT Spine1
		{
			OFFSET 0.00000 7.93124 0.00000
			CHANNELS 3 Xrotation Yrotation Zrotation
			JOINT Neck
			{
				OFFSET 0.00000 8.48368 0.00000
				CHANNELS 3 Xrotation Yrotation Zrotation
				JOINT Head
				{
					OFFSET 0.00000 6.65077 0.00000
					CHANNELS 3 Xrotation Yrotation Zrotation
					End Site
					{
						OFFSET 0.00000 4.52755 0.00000
					}
				}
			}
			JOINT LeftShoulder
			{
				OFFSET 0.00000 8.48368 0.00000
				CHANNELS 3 Xrotation Yrotation Zrotation
				JOINT LeftArm
				{
					OFFSET 7.74502 -0.00003 0.00000
					CHANNELS 3 Xrotation Yrotation Zrotation
					JOINT LeftForeArm
					{
						OFFSET 12.49824 -0.00005 0.00000
						CHANNELS 3 Xrotation Yrotation Zrotation
						JOINT LeftHand
						{
							OFFSET 9.88337 -0.00004 0.00000
							CHANNELS 3 Xrotation Yrotation Zrotation
							JOINT LeftHandThumb
							{
								OFFSET 0.00000 0.00000 0.00000
								CHANNELS 3 Xrotation Yrotation Zrotation
								End Site
								{
									OFFSET 0.00000 0.00000 3.93700
								}
							}
							JOINT L_Wrist_End
							{
								OFFSET 3.93700 -0.00001 0.00000
								CHANNELS 3 Xrotation Yrotation Zrotation
							}
						}
					}
				}
			}
			JOINT RightShoulder
			{
				OFFSET 0.00000 8.48368 0.00000
				CHANNELS 3 Xrotation Yrotation Zrotation
				JOINT RightArm
				{
					OFFSET -7.74502 -0.00003 0.00000
					CHANNELS 3 Xrotation Yrotation Zrotation
					JOINT RightForeArm
					{
						OFFSET -12.49824 -0.00005 0.00000
						CHANNELS 3 Xrotation Yrotation Zrotation
						JOINT RightHand
						{
							OFFSET -9.88337 -0.00004 0.00000
							CHANNELS 3 Xrotation Yrotation Zrotation
							JOINT RightHandThumb
							{
								OFFSET 0.00000 0.00000 0.00000
								CHANNELS 3 Xrotation Yrotation Zrotation
								End Site
								{
									OFFSET 0.00000 0.00000 3.93700
								}
							}
							JOINT R_Wrist_End
							{
								OFFSET -5.39369 -0.00002 0.00000
								CHANNELS 3 Xrotation Yrotation Zrotation
							}
						}
					}
				}
			}
		}
	}
}
MOTION
Frames: 19
Frame Time: 0.033332
 6.6876 33.8726 -6.8657 26.1718 -1.8573 -12.0103 -53.0901 3.3019 9.5096 41.9941 -0.0000 0.0000 -21.4815 1.9552 -9.4321 12.1261 -0.0000 0.0000 -65.8895 -11.6388 -7.0171 76.2167 -0.0000 0.0000 10.3583 -10.3090 30.0318 -2.0699 0.0000 -0.0000 1.8895 -0.1777 -2.8466 31.8210 -5.5400 -3.9365 -9.1268 2.2216 0.9290 17.9123 -12.7447 4.5255 -8.9748 19.4979 29.8632 11.4526 -49.0425 -72.3124 -0.0004 -62.2964 -0.0002 4.5443 -24.9936 18.2500 -0.0000 -0.0000 0.0000 -0.0000 -0.0000 0.0000 14.3572 -13.8716 -17.8966 -31.4917 32.4687 95.7249 -0.0002 42.3953 0.0001 69.1496 -73.2548 -117.6517 -0.0000 0.0000 -0.0000 -0.0000 0.0000 -0.0000
 6.7879 34.1909 -6.6385 25.0993 -2.6701 -12.2297 -50.3043 3.3267 9.9231 39.3684 -0.0000 0.0000 -20.7011 2.5169 -8.4570 11.6001 -0.0000 0.0000 -63.8675 -12.3997 -6.4486 74.6990 -0.0000 0.0000 11.1414 -10.3038 30.2828 -1.2729 0.0000 -0.0000 2.0804 -0.4194 -2.7969 31.2445 -5.5259 -3.6486 -9.2464 2.6718 0.9398 17.7547 -12.0439 4.4688 -9.0611 19.9514 29.8312 11.9551 -47.9745 -72.3453 -0.0004 -62.6969 -0.0002 4.4559 -25.5782 19.6091 -0.0000 0.0000 -0.0000 -0.0000 0.0000 -0.0000 14.2866 -14.0333 -17.8185 -31.0644 32.4023 95.7537 -0.0002 42.3775 0.0001 69.6282 -73.2243 -117.1888 -0.0000 0.0000 -0.0000 -0.0000 0.0000 -0.0000
 6.8805 34.4628 -6.3611 23.7632 -3.7348 -12.4595 -47.3660 3.2337 10.4170 37.1599 -0.0000 0.0000 -20.2402 3.4332 -7.5062 11.2271 0.0000 0.0000 -61.4316 -13.0883 -5.5672 73.1159 -0.0000 0.0000 11.0094 -10.3455 30.1707 -1.1911 -0.0000 0.0000 2.0546 -0.3976 -2.8565 30.8640 -5.2152 -3.3388 -9.1471 3.2198 1.1545 17.4711 -11.6373 4.2506 -8.9830 20.0275 29.8150 12.0965 -46.2923 -72.6680 -0.0004 -63.4509 -0.0003 2.3481 -24.5934 17.3978 -0.0000 0.0000 -0.0000 -0.0000 0.0000 -0.0000 14.4717 -14.1621 -17.5682 -30.7441 32.0822 95.5720 -0.0002 41.6695 0.0001 68.9992 -73.5080 -117.5582 -0.0000 0.0000 -0.0000 -0.0000 0.0000 -0.0000
 6.9781 34.6979 -6.0574 22.4118 -4.9202 -12.5733 -44.4079 3.1451 10.8250 35.1209 -0.0000 0.0000 -19.9650 4.5766 -6.9387 11.0734 -0.0000 0.0000 -58.8703 -13.6562 -4.6563 71.3337 -0.0000 0.0000 11.0473 -10.3490 29.9685 -1.0890 -0.0000 -0.0000 1.8228 -0.3053 -2.9288 30.5146 -4.9656 -3.1791 -8.7961 3.7492 1.3413 17.0275 -11.3023 4.0003 -8.7760 20.0909 29.7144 12.2377 -45.3100 -72.7424 -0.0004 -63.4595 -0.0003 1.0134 -24.9886 17.2636 -0.0000 0.0000 -0.0000 -0.0000 0.0000 -0.0000 15.0185 -14.2484 -17.1644 -30.8277 31.5147 95.3303 -0.0002 40.6946 0.0001 69.2385 -73.8204 -117.8591 -0.0000 0.0000 -0.0000 -0.0000 0.0000 -0.0000
 7.0793 34.8994 -5.7268 20.9621 -5.7830 -12.5693 -41.3648 3.7607 11.1237 33.0462 -0.0000 0.0000 -19.6969 5.1411 -6.5393 11.0615 -0.0000 0.0000 -56.1084 -14.3685 -4.1301 69.4147 -0.0000 0.0000 11.3907 -10.3830 29.9148 -0.9562 0.0000 0.0000 1.7380 -0.3897 -3.0190 30.2143 -4.9421 -3.0545 -8.7787 4.2541 1.4895 17.1107 -10.8720 3.8198 -8.6498 20.2323 29.6267 12.0761 -44.5134 -73.0309 -0.0004 -62.9200 -0.0003 -0.2087 -25.5279 17.4344 -0.0000 0.0000 -0.0000 -0.0000 0.0000 -0.0000 15.1869 -14.3146 -16.8463 -30.7106 30.9607 95.2134 -0.0002 39.7625 0.0001 70.3123 -74.0122 -117.6147 -0.0000 0.0000 -0.0000 -0.0000 0.0000 -0.0000
 7.1838 35.0701 -5.4039 19.9337 -6.3337 -12.4097 -38.8160 4.7938 11.1898 30.9660 -0.0000 0.0000 -19.3473 5.1431 -6.5225 11.0274 -0.0000 0.0000 -53.7524 -15.3281 -4.0571 67.5353 -0.0000 0.0000 11.4642 -10.6839 29.7752 -0.8309 0.0000 -0.0000 1.5807 -0.5971 -3.0853 29.5949 -5.0653 -2.9282 -8.7232 4.6684 1.6969 17.2913 -10.7834 3.4883 -8.5761 20.2331 29.5766 11.7481 -44.1007 -73.4356 -0.0004 -61.9724 -0.0002 -0.8864 -25.9337 17.8369 -0.0000 -0.0000 0.0000 -0.0000 -0.0000 0.0000 16.7618 -14.8845 -16.2079 -31.8866 30.5717 95.1714 -0.0002 39.0650 0.0001 70.3740 -74.0225 -117.8443 -0.0000 0.0000 -0.0000 -0.0000 0.0000 -0.0000
 7.2979 35.2117 -5.0568 18.5289 -6.8091 -12.0525 -35.7725 6.1184 11.0143 28.7737 -0.0000 0.0000 -19.0410 5.0182 -6.6043 11.0115 -0.0000 0.0000 -51.0312 -15.9129 -4.1120 65.8028 -0.0000 0.0000 11.6945 -11.0455 29.5932 -0.6659 0.0000 0.0000 1.7162 -0.6940 -3.2427 29.2469 -5.2076 -3.0170 -8.9096 4.9193 1.8516 17.6275 -10.5639 3.3898 -8.7285 20.1318 29.5236 11.3556 -43.5782 -73.9377 -0.0004 -60.9938 -0.0002 -1.7200 -26.3500 17.9443 -0.0000 -0.0000 0.0000 -0.0000 -0.0000 0.0000 17.4645 -15.2609 -15.5732 -32.1497 30.7178 95.0132 -0.0002 38.7145 0.0001 69.3413 -74.3594 -118.1473 -0.0000 0.0000 -0.0000 -0.0000 0.0000 -0.0000
 7.4151 35.3180 -4.7359 17.5155 -7.1056 -11.8028 -33.3346 7.0573 10.7158 26.9840 -0.0000 0.0000 -18.8407 4.9755 -6.6848 11.0721 -0.0000 -0.0000 -48.7842 -16.1990 -4.0848 64.4263 -0.0000 0.0000 12.2355 -11.4943 29.9255 -0.6084 -0.0000 -0.0000 1.6741 -0.8872 -3.1984 28.7698 -5.4197 -3.0357 -8.7214 5.1752 1.8029 17.4806 -10.3130 3.1631 -8.5798 20.0960 29.3266 10.5265 -42.8667 -74.6006 -0.0004 -60.0422 -0.0002 -2.8754 -26.9069 18.3604 -0.0000 -0.0000 0.0000 -0.0000 -0.0000 0.0000 17.8344 -15.4380 -15.4417 -32.2116 30.6615 95.2150 -0.0002 38.2326 0.0001 69.0035 -74.1124 -118.2795 -0.0000 0.0000 -0.0000 -0.0000 0.0000 -0.0000
 7.5337 35.3890 -4.4146 16.5492 -7.4809 -11.5326 -31.0731 7.6300 10.2771 25.6026 -0.0000 0.0000 -18.8455 5.3550 -6.5438 10.9212 -0.0000 0.0000 -46.6813 -15.8715 -3.8793 63.4343 -0.0000 0.0000 13.0779 -11.6210 30.1559 -0.4748 -0.0000 -0.0000 1.5158 -0.9229 -3.2698 28.6056 -5.4205 -2.9862 -8.7055 5.4055 1.8529 17.5226 -10.2023 2.9096 -8.7067 19.9755 29.2865 9.3619 -41.9945 -75.6971 -0.0003 -58.9403 -0.0002 -6.1030 -28.8184 20.9172 -0.0000 -0.0000 0.0000 -0.0000 -0.0000 0.0000 18.0986 -15.5194 -15.2462 -32.1486 30.7127 95.2539 -0.0002 37.8447 0.0001 69.5154 -74.0236 -117.8249 -0.0000 0.0000 -0.0000 -0.0000 0.0000 -0.0000
 7.6461 35.4115 -4.0968 15.5568 -7.8123 -11.3471 -29.1878 8.1108 9.9386 25.0258 -0.0000 0.0000 -19.1827 5.6050 -6.2050 10.9622 0.0000 0.0000 -44.6643 -15.3451 -3.6282 62.8645 -0.0000 0.0000 14.2701 -11.4891 30.5444 0.0123 0.0000 -0.0000 1.4088 -0.9198 -3.3143 28.4745 -5.3387 -2.8880 -8.7021 5.6047 1.8921 17.7941 -10.0812 2.7053 -8.8842 19.9167 29.1992 7.9583 -41.1999 -76.8048 -0.0003 -57.7493 -0.0002 -5.7045 -30.1329 21.7643 -0.0000 0.0000 -0.0000 -0.0000 0.0000 -0.0000 18.3214 -15.5339 -15.1003 -32.2062 30.7742 95.3967 -0.0002 37.0532 0.0001 69.2861 -73.7616 -118.2029 -0.0000 0.0000 -0.0000 -0.0000 0.0000 -0.0000
 7.7660 35.3623 -3.7740 14.6532 -7.9536 -11.1359 -27.8192 8.2249 9.4666 25.4111 -0.0000 0.0000 -20.0068 6.0051 -5.9987 11.2318 -0.0000 0.0000 -42.9060 -14.8132 -3.5994 62.8272 -0.0000 0.0000 15.2729 -11.1891 30.8294 0.7444 -0.0000 0.0000 1.2373 -0.9137 -3.2942 28.3405 -5.2762 -2.8123 -8.5871 5.6984 1.8936 18.0806 -9.9792 2.6272 -9.1069 19.6846 28.9989 6.5780 -40.4811 -77.6005 -0.0003 -56.5605 -0.0002 -6.7368 -32.3519 24.4082 -0.0000 -0.0000 0.0000 -0.0000 -0.0000 0.0000 18.4862 -15.5488 -15.0177 -32.2836 30.7314 95.6721 -0.0002 36.0131 0.0000 69.5498 -73.7487 -118.1695 -0.0000 0.0000 -0.0000 -0.0000 0.0000 -0.0000
 7.9040 35.2363 -3.4331 13.6074 -7.8663 -10.6791 -26.5635 7.9909 8.5747 26.6334 -0.0000 0.0000 -21.2172 6.5919 -5.1906 10.9400 -0.0000 0.0000 -41.2302 -14.2923 -4.0526 63.3521 -0.0000 0.0000 15.0959 -11.1900 31.3434 -2.3828 0.0000 -0.0000 1.2155 -0.9302 -3.2905 28.2192 -5.3589 -2.9220 -8.6344 5.5910 1.7986 18.4868 -9.7735 2.7305 -9.3954 19.5988 28.5638 4.9164 -39.5269 -78.0739 -0.0003 -55.3370 -0.0002 -7.4096 -33.1191 24.7669 -0.0000 0.0000 -0.0000 -0.0000 0.0000 -0.0000 18.3889 -15.6310 -14.8564 -32.2779 30.7497 95.9745 -0.0001 34.7205 0.0000 70.1325 -73.4916 -118.3006 -0.0000 0.0000 -0.0000 -0.0000 0.0000 -0.0000
 8.0456 35.0207 -3.0853 12.8416 -7.6522 -10.2628 -26.1896 7.4510 7.7282 29.1273 -0.0000 0.0000 -23.1317 7.1987 -4.9430 10.9113 -0.0000 0.0000 -39.9257 -13.9309 -4.6272 64.1081 -0.0000 0.0000 13.5683 -11.4997 30.6354 -3.9325 -0.0000 -0.0000 1.0750 -0.9655 -3.2037 27.7758 -5.4470 -3.0051 -8.5835 5.6953 1.9905 18.5976 -9.9578 2.6031 -9.7347 19.4121 28.0878 3.2765 -38.9730 -78.2007 -0.0003 -53.9801 -0.0001 -7.0598 -33.4994 24.7513 -0.0000 -0.0000 0.0000 -0.0000 -0.0000 0.0000 18.5317 -15.6011 -14.5136 -32.0902 30.8274 95.9031 -0.0001 33.5466 0.0000 70.8043 -73.5942 -118.0719 -0.0000 0.0000 -0.0000 -0.0000 0.0000 -0.0000
 8.2129 34.6712 -2.6947 11.6578 -7.2114 -9.8702 -26.0268 6.8373 6.7716 33.0108 -0.0000 0.0000 -25.4190 7.8177 -3.9774 10.4155 -0.0000 0.0000 -38.4439 -13.3518 -5.4094 65.3674 -0.0000 0.0000 11.8406 -11.6722 30.5294 -6.3488 -0.0000 -0.0000 1.2219 -0.9935 -2.9614 27.3191 -5.5339 -3.1439 -8.5182 5.5363 2.0974 18.3746 -10.2398 2.5543 -9.7546 19.0660 27.3050 1.7350 -38.6131 -77.7533 -0.0003 -52.9929 -0.0001 -6.4266 -33.3255 24.9036 -0.0000 -0.0000 0.0000 -0.0000 -0.0000 0.0000 18.7173 -15.6576 -14.2273 -31.7447 30.8320 95.7117 -0.0001 32.4156 0.0000 71.1959 -73.4143 -117.7999 -0.0000 0.0000 -0.0000 -0.0000 0.0000 -0.0000
 8.3791 34.2202 -2.2493 10.0739 -6.9491 -9.4064 -25.6511 7.0144 5.9628 37.2891 -0.0000 0.0000 -28.0683 7.9992 -3.2802 10.2929 -0.0000 0.0000 -36.7717 -12.3699 -6.2159 67.0366 -0.0000 0.0000 9.8127 -11.6836 30.3916 -9.0494 -0.0000 -0.0000 1.3539 -0.9336 -2.8716 27.1734 -5.5985 -3.3846 -8.7378 5.3076 2.2833 18.1377 -10.4454 2.6898 -9.6647 18.5232 26.3610 0.7470 -38.0858 -76.7479 -0.0003 -52.5116 -0.0001 -5.5269 -33.2247 25.2309 -0.0000 0.0000 -0.0000 -0.0000 0.0000 -0.0000 18.8525 -15.5003 -13.8056 -31.4713 30.9451 95.2375 -0.0001 30.9835 0.0000 71.2094 -73.0843 -117.8945 -0.0000 0.0000 -0.0000 -0.0000 0.0000 -0.0000
 8.5536 33.7171 -1.7538 8.4782 -6.7431 -8.7879 -25.0447 8.0101 5.1716 41.2253 -0.0000 0.0000 -30.7339 7.6925 -2.8838 9.6129 -0.0000 0.0000 -35.1889 -11.4247 -7.3433 69.0393 -0.0000 0.0000 7.7939 -11.5943 30.9842 -11.5377 0.0000 0.0000 1.3440 -1.0303 -3.0998 26.9472 -5.8731 -3.6568 -8.9691 5.3537 2.8894 17.7305 -10.9717 2.7382 -8.7314 17.7227 26.0442 -0.1227 -36.2664 -76.5931 -0.0003 -52.9013 -0.0001 -3.9313 -33.1586 26.5272 -0.0000 -0.0000 0.0000 -0.0000 -0.0000 0.0000 19.1895 -15.0908 -13.1626 -31.4997 32.1087 94.1831 -0.0001 29.3728 0.0000 70.8476 -72.6552 -118.1340 -0.0000 0.0000 -0.0000 -0.0000 0.0000 -0.0000
 8.7275 33.3142 -1.1894 7.0044 -6.2991 -8.3716 -23.8523 9.6346 4.8027 43.8749 -0.0000 0.0000 -32.8718 6.4951 -3.2532 9.0673 -0.0000 -0.0000 -33.2924 -11.2408 -8.6696 70.4522 -0.0000 0.0000 5.9166 -11.3254 31.4466 -12.8887 0.0000 -0.0000 1.2297 -1.3505 -3.4362 26.5615 -6.1509 -3.5501 -9.2873 5.0982 3.3194 17.8170 -11.4379 3.0520 -7.0436 16.8438 27.3808 -0.9593 -34.5667 -78.2424 -0.0003 -54.1386 -0.0001 -1.4530 -32.1666 29.1920 -0.0000 -0.0000 0.0000 -0.0000 -0.0000 0.0000 19.1521 -15.0284 -13.1045 -31.4940 33.8906 93.3997 -0.0001 27.7841 0.0000 70.5873 -72.7210 -118.9711 -0.0000 0.0000 -0.0000 -0.0000 0.0000 -0.0000
 8.9851 33.2003 -0.5170 5.5260 -6.1650 -7.9974 -21.1203 11.8501 4.4762 43.7093 -0.0000 0.0000 -33.6049 4.8584 -4.0808 8.5281 -0.0000 0.0000 -30.7721 -11.6684 -10.2159 70.1463 -0.0000 0.0000 5.0708 -10.5733 31.1794 -13.8945 0.0000 0.0000 1.3094 -1.6575 -3.7764 25.7601 -6.0936 -2.9892 -9.5364 5.0154 3.3235 18.9294 -11.9924 2.6580 -6.1709 16.2139 29.6091 0.0642 -36.8774 -79.8550 -0.0003 -55.8067 -0.0002 1.7781 -30.2290 30.2548 -0.0000 -0.0000 0.0000 -0.0000 -0.0000 0.0000 19.4991 -15.1338 -14.0310 -31.0782 34.8025 92.7567 -0.0001 27.5131 0.0000 72.8430 -73.2194 -118.6115 -0.0000 0.0000 -0.0000 -0.0000 0.0000 -0.0000
 9.2774 33.5232 0.1173 5.1828 -6.4897 -8.1929 -18.6717 14.0751 4.7752 41.2125 -0.0000 0.0000 -31.5952 2.9566 -5.9368 6.5738 0.0000 0.0000 -28.7755 -13.2749 -11.1111 67.5885 -0.0000 0.0000 6.0119 -10.1000 30.6925 -12.9570 0.0000 -0.0000 1.8976 -1.8383 -3.6359 23.2103 -5.5962 -2.0321 -9.6702 5.2656 3.0968 21.6362 -12.3657 1.9065 -6.4813 15.6928 31.3447 3.3512 -42.6715 -79.8791 -0.0003 -57.7231 -0.0002 2.0126 -28.8381 28.0972 -0.0000 0.0000 -0.0000 -0.0000 0.0000 -0.0000 19.6823 -14.6929 -14.9057 -29.0800 35.6553 91.4839 -0.0001 27.8064 0.0000 70.6938 -73.8739 -120.0759 -0.0000 0.0000 -0.0000 -0.0000 0.0000 -0.0000
